<svg id="Layer_1" data-name="Layer 1" xmlns="http://www.w3.org/2000/svg" viewBox="0 0 238.11 238.11"><defs><style>.cls-1{fill:#cba05b;}</style></defs><path class="cls-1" d="M18.27,221.59h-.93A11.92,11.92,0,0,1,5.25,207.85c2.31-18.54,7.57-106.64,7-111.34-.07-.53-.62-2.79-5-9.49A32.14,32.14,0,0,1,2.46,71.85l.66-45.2C3.25,17.7,4.69,17,6.27,17s3,.74,3.17,9.69L10,57.58c0,.39,0,.75,0,1.1,0-.35,0-.72,0-1.1l.52-30.93c.15-8.51,1.66-9.69,3.26-9.7s3.13,1.18,3.28,9.7l.51,30.93c0,.39,0,.77,0,1.12,0-.35,0-.73,0-1.12l.51-30.93C18.35,17,20.3,17,21.46,17s3.11,0,3.27,9.7l.51,30.93c0,.39,0,.77,0,1.12,0-.35,0-.73,0-1.12l.51-30.93C26,17.7,27.42,17,29,17h0c1.58,0,3,.75,3.14,9.7l.66,45.17A33.08,33.08,0,0,1,28.2,87.06c-4.11,6.48-4.75,8.77-4.83,9.45-.57,4.71,4.69,92.8,7,111.34a12.19,12.19,0,0,1-2.86,9.72A12.08,12.08,0,0,1,18.27,221.59ZM6.59,63.31l-.13,8.57a27.9,27.9,0,0,0,4.09,12.93c5.28,8,5.57,10.43,5.67,11.22.68,5.57-4.95,95.85-7,112.32a8.22,8.22,0,0,0,1.89,6.57,8.14,8.14,0,0,0,6.24,2.67h.94a8.16,8.16,0,0,0,6.23-2.66,8.25,8.25,0,0,0,1.89-6.58c-2-16.47-7.68-106.74-7-112.32.09-.78.38-3.17,5.42-11.11a29,29,0,0,0,4-13.07l-.12-8.54c-.56,2.23-1.57,4-3.41,4h0c-2.45,0-3.44-3.21-3.82-6.35-.38,3.14-1.37,6.35-3.82,6.35h0c-2.44,0-3.43-3.2-3.81-6.34-.38,3.14-1.37,6.34-3.82,6.34h0C8.16,67.34,7.14,65.54,6.59,63.31Z"/><path class="cls-1" d="M223.45,221.59h-.94a11.93,11.93,0,0,1-12.09-13.74c1.87-15,4.45-39,6.07-61.11,0-2.2.13-4.71.21-7.3.27-8.9.58-19,.21-25V114c-.14-1.9-.9-5-2.14-5.7l-2.5-1.61a5.38,5.38,0,0,1-2.47-4.45C209.32,71,210.9,18.35,226.86,17a3.39,3.39,0,0,1,2.59.88,3.5,3.5,0,0,1,1.13,2.57v91.43c1.63,32.36,4.75,94,5,96a11.93,11.93,0,0,1-12.1,13.72Zm-2.54-107.37c.37,6.24.06,16.38-.22,25.34-.07,2.59-.15,5.09-.21,7.38-1.63,22.29-4.21,46.32-6.09,61.41a8.23,8.23,0,0,0,1.89,6.57,8.12,8.12,0,0,0,6.23,2.67h.94a7.93,7.93,0,0,0,8.12-9.24c-.24-2-4.5-86.69-5-96.34V21.1c-3,1.12-13.87,10.07-12.78,81.1a1.4,1.4,0,0,0,.64,1.15l2.42,1.56c3.51,2,4,8.22,4,8.92v.39Z"/><path class="cls-1" d="M118.81,212.21a86.8,86.8,0,1,1,86.8-86.8A86.89,86.89,0,0,1,118.81,212.21Zm0-169.59a82.8,82.8,0,1,0,82.8,82.79A82.88,82.88,0,0,0,118.81,42.62Z"/><path class="cls-1" d="M118.81,168.52a43.11,43.11,0,1,1,43.1-43.11A43.16,43.16,0,0,1,118.81,168.52Zm0-82.21a39.11,39.11,0,1,0,39.1,39.1A39.14,39.14,0,0,0,118.81,86.31Z"/></svg>