<svg id="Layer_1" data-name="Layer 1" xmlns="http://www.w3.org/2000/svg" viewBox="0 0 217.78 238.11"><defs><style>.cls-1{fill:#cba05b;}</style></defs><path class="cls-1" d="M49.22,210.91H92.13v-115c0-11.21-4.51-15.25-8.48-18.82-3.07-2.75-6.24-5.59-6.24-11v-45H63.94v45c0,5.39-3.17,8.23-6.24,11-4,3.57-8.48,7.61-8.48,18.82ZM94.15,215H47.2a2.05,2.05,0,0,1-2-2.07V95.89c0-13.08,5.47-18,9.86-21.92,2.82-2.53,4.86-4.36,4.86-7.88V19a2,2,0,0,1,2-2.07H79.43a2,2,0,0,1,2,2.07V66.09c0,3.52,2,5.35,4.87,7.88,4.39,3.94,9.85,8.84,9.85,21.92V213a2,2,0,0,1-2,2.07"/><rect class="cls-1" x="55.28" y="133.65" width="4.04" height="48.38"/><rect class="cls-1" x="61.73" y="58.22" width="15.69" height="4.17"/><rect class="cls-1" x="59.9" y="25.2" width="21.55" height="3.71"/><path class="cls-1" d="M127.08,85.67c-1.9,6.41-9.39,32.31-9.39,42.79,0,14.83,11.19,21,20.18,25.93,3.65,2,6.84,3.76,8.79,5.86,2-2.1,5.14-3.85,8.79-5.86,9-4.95,20.19-11.1,20.19-25.93,0-10.48-7.49-36.38-9.4-42.79ZM146.66,215a2.05,2.05,0,0,1-2-2.07V165c0-2.18-4.22-4.5-8.68-7-9.42-5.18-22.31-12.27-22.31-29.56,0-12.56,9.6-44.13,10-45.46a2,2,0,0,1,1.93-1.45h42.15A2,2,0,0,1,169.67,83c.41,1.33,10,32.9,10,45.46,0,17.29-12.9,24.38-22.31,29.56-4.47,2.46-8.69,4.78-8.69,7v48a2,2,0,0,1-2,2.07"/><rect class="cls-1" x="124.44" y="210.91" width="44.44" height="4.13"/><path class="cls-1" d="M127.14,137.51a14.8,14.8,0,0,1-13.3-8.16l3.65-1.79a11.08,11.08,0,0,0,6.83,5.47c4.55,1.17,10.12-.61,16.57-5.3,11.33-8.26,20.94-11.28,28.57-9a16.22,16.22,0,0,1,10.08,9l-3.76,1.52a12.09,12.09,0,0,0-7.54-6.53c-6.27-1.86-14.92,1-25,8.4-5.86,4.27-11.25,6.42-16.09,6.42"/></svg>