<svg id="Layer_1" data-name="Layer 1" xmlns="http://www.w3.org/2000/svg" viewBox="0 0 238.11 238.11"><defs><style>.cls-1{fill:#cba05b;}</style></defs><path class="cls-1" d="M202.34,224.56c-.31,0-.61,0-.92,0a15.44,15.44,0,0,1-11.29-6.16c-12.3-15.8-32.27-40.59-51.45-62.8-8.48-8.91-16.69-17.31-22.49-23.2-23.2,25.38-51.42,60-68.78,82.35a15.15,15.15,0,0,1-23.19,1.48l-.87-.87a15.14,15.14,0,0,1,1.48-23.18c22.3-17.36,56.9-45.52,82.24-68.68-2-1.44-4.79-2.86-6.55-2.39l-3.81.82a6.5,6.5,0,0,1-5.88-1.69c-68.72-66.64-69.42-88-63.72-94.76a3.84,3.84,0,0,1,2.78-1.36,4,4,0,0,1,3,1.15l86.58,86.58a187.19,187.19,0,0,0,16.08-17.28c.59-.75,2.18-3.6,4.28-13.85,1.27-6.16,5.47-14.19,9.56-18.28L192.22,20.8c8.73-8.48,10.22-7,11.1-6.11s2.36,2.35-6.1,11.11L168.79,55.18a30.77,30.77,0,0,0-4,5,30.9,30.9,0,0,0,5-4l29.39-28.43c8.75-8.45,10.35-6.87,11.21-6s2.45,2.45-6,11.21L175.93,62.32a30.77,30.77,0,0,0-4,5,31.34,31.34,0,0,0,5-4L206.3,34.88c8.76-8.46,10.35-6.86,11.21-6s2.45,2.46-6,11.21L183.07,69.46a30.77,30.77,0,0,0-4,5,30.77,30.77,0,0,0,5-4L213.45,42c8.75-8.46,10.22-7,11.11-6.1h0c.94.95,2.36,2.37-6.12,11.1L176.85,89.84c-4.1,4.1-12.1,8.38-18.24,9.75-10,2.25-12.85,3.86-13.6,4.44A189.61,189.61,0,0,0,127.87,120c36.83,35.2,83.21,74.56,84.83,75.82A15.13,15.13,0,0,1,214.18,219l-.87.87A15.43,15.43,0,0,1,202.34,224.56Zm-86.25-98,1.47,1.49c5.85,5.93,14.77,15,24.08,24.82,19.3,22.34,39.32,47.2,51.65,63A11.13,11.13,0,0,0,210.48,217l.87-.87a11.15,11.15,0,0,0-1.1-17.2c-1.66-1.29-49.45-41.84-86.61-77.48l-1.44-1.39,1.39-1.44a202.37,202.37,0,0,1,19-17.76c.79-.62,3.2-2.5,15.19-5.19,5.4-1.21,12.7-5.09,16.26-8.65l20.69-21.31-7.85,7.59c-2.63,2.55-9.07,8.16-11.93,5.29s2.74-9.29,5.29-11.93L195,51.39,179.7,66.18c-2.64,2.55-9.07,8.16-11.93,5.29s2.74-9.3,5.29-11.93l14.83-15.33L172.56,59c-2.64,2.55-9.06,8.16-11.93,5.29s2.74-9.3,5.29-11.93l7.67-7.92L152.18,65.26c-3.53,3.54-7.33,10.83-8.45,16.24-2.52,12.27-4.43,14.71-5,15.51a201.71,201.71,0,0,1-17.85,19l-1.39,1.34-3.91-3.85L30.09,28.13C27.86,31,21.9,47.81,93.61,117.34a2.51,2.51,0,0,0,2.26.65l3.71-.8c4.9-1.31,10.89,3.81,11.56,4.4l.4.39,1.47,1.47-1.54,1.41c-25.56,23.53-61.32,52.65-84.18,70.45a11.13,11.13,0,0,0-1.11,17.19l.87.87a11.38,11.38,0,0,0,8.82,3.52,11.51,11.51,0,0,0,8.38-4.62C62,189.44,91.12,153.7,114.67,128.11Z"/></svg>